<?xml version="1.0" encoding="UTF-8"?>
<svg version="1.1" xmlns="http://www.w3.org/2000/svg" width="225" height="225">
<path d="M0 0 C53.79 0 107.58 0 163 0 C163 21.45 163 42.9 163 65 C109.21 65 55.42 65 0 65 C0 43.55 0 22.1 0 0 Z " fill="#F5F5F5" transform="translate(31,80)"/>
<path d="M0 0 C53.79 0 107.58 0 163 0 C163 21.45 163 42.9 163 65 C109.21 65 55.42 65 0 65 C0 43.55 0 22.1 0 0 Z M51 4 C51 23.14 51 42.28 51 62 C86.64 62 122.28 62 159 62 C159 42.86 159 23.72 159 4 C123.36 4 87.72 4 51 4 Z " fill="#121212" transform="translate(31,80)"/>
<path d="M0 0 C0.33 0 0.66 0 1 0 C1 10.23 1 20.46 1 31 C2.32 31 3.64 31 5 31 C5 29.35 5 27.7 5 26 C6.32 26 7.64 26 9 26 C9 27.65 9 29.3 9 31 C10.32 31 11.64 31 13 31 C13 27.04 13 23.08 13 19 C13.66 19 14.32 19 15 19 C18.12940055 22.97193147 18.29162929 26.04230204 18 31 C18.99 31 19.98 31 21 31 C20.9175 29.96875 20.835 28.9375 20.75 27.875 C21.03952292 23.38739467 22.15955923 21.4252374 25 18 C25.66 18 26.32 18 27 18 C27 22.29 27 26.58 27 31 C28.32 31.33 29.64 31.66 31 32 C30.01 32 29.02 32 28 32 C27.67 35.63 27.34 39.26 27 43 C26.34 43 25.68 43 25 43 C22 36.375 22 36.375 22 33 C20.68 33 19.36 33 18 33 C17.80664062 33.62648437 17.61328125 34.25296875 17.4140625 34.8984375 C17.15367188 35.71570313 16.89328125 36.53296875 16.625 37.375 C16.24214844 38.59316406 16.24214844 38.59316406 15.8515625 39.8359375 C15 42 15 42 13 44 C12.34 43.67 11.68 43.34 11 43 C9.33805547 42.64386903 7.671549 42.30791692 6 42 C5.375 39.625 5.375 39.625 5 37 C7 35 7 35 9.625 34.875 C10.40875 34.91625 11.1925 34.9575 12 35 C12.33 34.34 12.66 33.68 13 33 C7.41499433 33.19898708 7.41499433 33.19898708 3 36 C2.49989476 38.95769177 2.49989476 38.95769177 3 42 C5.63228537 44.82726947 8.2404812 45.47784461 12 46 C12 46.66 12 47.32 12 48 C11.01 48.495 11.01 48.495 10 49 C10.66 49 11.32 49 12 49 C12.33 50.65 12.66 52.3 13 54 C14.17755859 53.98259766 14.17755859 53.98259766 15.37890625 53.96484375 C21.03719775 53.91624493 26.42878878 53.98705251 32 55 C32.495 54.01 32.495 54.01 33 53 C33.99 53.66 34.98 54.32 36 55 C36 53.02 36 51.04 36 49 C36.99 49 37.98 49 39 49 C37.35 48.67 35.7 48.34 34 48 C33.67 48.99 33.34 49.98 33 51 C32.67 50.01 32.34 49.02 32 48 C31.34 48 30.68 48 30 48 C29.67 48.66 29.34 49.32 29 50 C29 49.01 29 48.02 29 47 C27.68 46.67 26.36 46.34 25 46 C26.65 46 28.3 46 30 46 C30 43.36 30 40.72 30 38 C32 41 32 41 33 44 C33.99 44.495 33.99 44.495 35 45 C35.66 43.02 36.32 41.04 37 39 C37.33 39 37.66 39 38 39 C38 41.31 38 43.62 38 46 C38.99 46 39.98 46 41 46 C41 43.03 41 40.06 41 37 C41.33 37 41.66 37 42 37 C42 39.97 42 42.94 42 46 C43.32 46 44.64 46 46 46 C46 44.35 46 42.7 46 41 C48.475 40.505 48.475 40.505 51 40 C51.33 38.35 51.66 36.7 52 35 C52.33 35 52.66 35 53 35 C53.495 39.95 53.495 39.95 54 45 C54.66 45 55.32 45 56 45 C56 45.66 56 46.32 56 47 C55.34 47 54.68 47 54 47 C54 48.32 54 49.64 54 51 C53.34 51 52.68 51 52 51 C52 50.01 52 49.02 52 48 C49.69 48.66 47.38 49.32 45 50 C45.495 51.98 45.495 51.98 46 54 C48.97 54.495 48.97 54.495 52 55 C52 54.01 52 53.02 52 52 C52.66 52 53.32 52 54 52 C54 52.99 54 53.98 54 55 C55.32 55 56.64 55 58 55 C58 54.34 58 53.68 58 53 C58.99 53 59.98 53 61 53 C61 53.66 61 54.32 61 55 C62.32 55 63.64 55 65 55 C65 54.01 65 53.02 65 52 C66.65 51.34 68.3 50.68 70 50 C70 51.65 70 53.3 70 55 C70.66 55 71.32 55 72 55 C72 53.35 72 51.7 72 50 C72.33 50 72.66 50 73 50 C73 51.65 73 53.3 73 55 C74.65 55 76.3 55 78 55 C78 54.34 78 53.68 78 53 C76.515 52.505 76.515 52.505 75 52 C75 51.01 75 50.02 75 49 C73.35 48.34 71.7 47.68 70 47 C71.32 46.34 72.64 45.68 74 45 C74 43.02 74 41.04 74 39 C72.35 38.34 70.7 37.68 69 37 C69 36.34 69 35.68 69 35 C70.65 35 72.3 35 74 35 C74 34.34 74 33.68 74 33 C71.69 33.66 69.38 34.32 67 35 C67.27617533 36.94074861 67.27617533 36.94074861 68 39 C69.485 39.99 69.485 39.99 71 41 C71 41.66 71 42.32 71 43 C68.36 43.33 65.72 43.66 63 44 C63 40.37 63 36.74 63 33 C62.01 33 61.02 33 60 33 C60 36.3 60 39.6 60 43 C58.68 42.67 57.36 42.34 56 42 C55.67 38.37 55.34 34.74 55 31 C57.31 31 59.62 31 62 31 C62 30.01 62 29.02 62 28 C63.98 28 65.96 28 68 28 C68 28.99 68 29.98 68 31 C71.96 30.67 75.92 30.34 80 30 C80.372678 25.372678 80.372678 25.372678 79 23 C79 21.68 79 20.36 79 19 C76.69 18.67 74.38 18.34 72 18 C72 21.96 72 25.92 72 30 C68.67654321 25.56872428 68.67654321 25.56872428 68 21.8125 C67.505 19.9253125 67.505 19.9253125 67 18 C65.515 17.505 65.515 17.505 64 17 C64.99 17 65.98 17 67 17 C67 15.68 67 14.36 67 13 C67.66 13 68.32 13 69 13 C69 13.66 69 14.32 69 15 C69.99 15.495 69.99 15.495 71 16 C71.33 15.01 71.66 14.02 72 13 C73.65 13 75.3 13 77 13 C77.495 14.485 77.495 14.485 78 16 C80.58926331 13.41073669 80.37398043 11.97294721 80.625 8.375 C80.69976562 7.37210937 80.77453125 6.36921875 80.8515625 5.3359375 C80.92503906 4.17964844 80.92503906 4.17964844 81 3 C81.33 3 81.66 3 82 3 C82 7.29 82 11.58 82 16 C82.99 16 83.98 16 85 16 C85 13.69 85 11.38 85 9 C88.2542015 11.83430453 89.5206753 13.68607774 90 18 C89.01 18 88.02 18 87 18 C86.80664062 18.60328125 86.61328125 19.2065625 86.4140625 19.828125 C86.15367187 20.62734375 85.89328125 21.4265625 85.625 22.25 C85.24214844 23.43335938 85.24214844 23.43335938 84.8515625 24.640625 C84.04826333 26.86627958 83.10288338 28.90931672 82 31 C82.99 30.67 83.98 30.34 85 30 C85.33 29.34 85.66 28.68 86 28 C87.65 28 89.3 28 91 28 C91.495 29.485 91.495 29.485 92 31 C93.54265031 30.91158724 95.08417123 30.80340305 96.625 30.6875 C97.48351562 30.62949219 98.34203125 30.57148437 99.2265625 30.51171875 C102.67905787 30.00734799 102.67905787 30.00734799 108 27 C108 37.23 108 47.46 108 58 C72.36 58 36.72 58 0 58 C0 38.86 0 19.72 0 0 Z " fill="#FAFAFA" transform="translate(82,84)"/>
<path d="M0 0 C2.62527189 -0.05382106 5.24944713 -0.09358313 7.875 -0.125 C8.62136719 -0.14175781 9.36773437 -0.15851563 10.13671875 -0.17578125 C12.09194461 -0.1933959 14.04742021 -0.10320189 16 0 C16.66 0.66 17.32 1.32 18 2 C17.66666667 4.33333333 17.33333333 6.66666667 17 9 C17.66 9.66 18.32 10.32 19 11 C20.65 7.37 22.3 3.74 24 0 C25.32 0 26.64 0 28 0 C29.32 3.3 30.64 6.6 32 10 C32.33 6.7 32.66 3.4 33 0 C35.31 0 37.62 0 40 0 C40.84439338 3.98071164 41.53343967 7.95647711 42 12 C41 13 41 13 38.27734375 13.09765625 C36.62412109 13.08025391 36.62412109 13.08025391 34.9375 13.0625 C33.83277344 13.05347656 32.72804688 13.04445313 31.58984375 13.03515625 C30.73519531 13.02355469 29.88054687 13.01195313 29 13 C29 12.01 29 11.02 29 10 C27.02 10 25.04 10 23 10 C23 10.99 23 11.98 23 13 C21.02 13.33 19.04 13.66 17 14 C17.495 18.95 17.495 18.95 18 24 C18.99 24.33 19.98 24.66 21 25 C21 21.7 21 18.4 21 15 C21.99 15 22.98 15 24 15 C24.495 19.95 24.495 19.95 25 25 C25.99 24.67 26.98 24.34 28 24 C30.1875 24.4375 30.1875 24.4375 32 25 C30.7315625 23.88625 30.7315625 23.88625 29.4375 22.75 C27 20 27 20 27.125 17.75 C28 16 28 16 29 15 C30.99958364 14.95919217 33.00045254 14.95745644 35 15 C35 15.66 35 16.32 35 17 C33.35 17 31.7 17 30 17 C31.63412443 18.70840281 32.86906094 19.93453047 35 21 C35 22.98 35 24.96 35 27 C34.34 27.33 33.68 27.66 33 28 C34.98 28.66 36.96 29.32 39 30 C37.515 30.495 37.515 30.495 36 31 C36 31.66 36 32.32 36 33 C36.66 33.33 37.32 33.66 38 34 C38.33 34.99 38.66 35.98 39 37 C36.36 37 33.72 37 31 37 C31 35.35 31 33.7 31 32 C29.35 32.66 27.7 33.32 26 34 C26 34.99 26 35.98 26 37 C24.68 37 23.36 37 22 37 C22 36.34 22 35.68 22 35 C21.01 35 20.02 35 19 35 C19 35.66 19 36.32 19 37 C17.68 37 16.36 37 15 37 C15 36.01 15 35.02 15 34 C14.34 34 13.68 34 13 34 C13 34.99 13 35.98 13 37 C10.125 37.125 10.125 37.125 7 37 C6.34 36.34 5.68 35.68 5 35 C5.53571429 31.46428571 5.53571429 31.46428571 7 30 C8.99958364 29.95919217 11.00045254 29.95745644 13 30 C13 30.99 13 31.98 13 33 C13.66 33 14.32 33 15 33 C15 31.68 15 30.36 15 29 C15.66 29 16.32 29 17 29 C17 28.34 17 27.68 17 27 C16.34 27 15.68 27 15 27 C14.34 24.69 13.68 22.38 13 20 C12.566875 20.495 12.13375 20.99 11.6875 21.5 C10 23 10 23 7 23 C7 24.65 7 26.3 7 28 C4.36 28 1.72 28 -1 28 C-1.495 25.03 -1.495 25.03 -2 22 C-2.66 23.65 -3.32 25.3 -4 27 C-4.99 26.67 -5.98 26.34 -7 26 C-7.33 25.01 -7.66 24.02 -8 23 C-8.66 24.98 -9.32 26.96 -10 29 C-9.01 29.33 -8.02 29.66 -7 30 C-6.67 30.66 -6.34 31.32 -6 32 C-5.67 31.34 -5.34 30.68 -5 30 C-2.69 30 -0.38 30 2 30 C1.01 30.495 1.01 30.495 0 31 C0 32.65 0 34.3 0 36 C-0.33 36 -0.66 36 -1 36 C-1 34.35 -1 32.7 -1 31 C-1.66 31 -2.32 31 -3 31 C-3 32.98 -3 34.96 -3 37 C-4.32 37 -5.64 37 -7 37 C-8.50391215 37.01093571 -10.0078184 37.02270387 -11.51171875 37.03515625 C-13.23697835 37.04442472 -14.9622388 37.05353428 -16.6875 37.0625 C-17.56728516 37.07087891 -18.44707031 37.07925781 -19.35351562 37.08789062 C-20.60745117 37.09272461 -20.60745117 37.09272461 -21.88671875 37.09765625 C-23.03466919 37.10551147 -23.03466919 37.10551147 -24.20581055 37.11352539 C-26 37 -26 37 -27 36 C-27.04063832 34.33382885 -27.042721 32.66611905 -27 31 C-27.66 31 -28.32 31 -29 31 C-29 32.65 -29 34.3 -29 36 C-29.33 36 -29.66 36 -30 36 C-30 34.35 -30 32.7 -30 31 C-30.66 30.67 -31.32 30.34 -32 30 C-30.35 30 -28.7 30 -27 30 C-27 29.34 -27 28.68 -27 28 C-28.093125 27.896875 -29.18625 27.79375 -30.3125 27.6875 C-34 27 -34 27 -35.9375 25.8125 C-37.5339636 23.08912093 -37.38630872 21.09046979 -37 18 C-36 16.125 -36 16.125 -34 15 C-31.28121737 14.75868793 -28.7407889 14.8652071 -26 15 C-26.33 15.99 -26.66 16.98 -27 18 C-28.65 18 -30.3 18 -32 18 C-32.33 19.65 -32.66 21.3 -33 23 C-30.23735711 23.59732819 -27.83967231 24 -25 24 C-23.02 19.545 -23.02 19.545 -21 15 C-19.68 15 -18.36 15 -17 15 C-16.01 18.3 -15.02 21.6 -14 25 C-13.34 25 -12.68 25 -12 25 C-11.67 21.7 -11.34 18.4 -11 15 C-7 16 -7 16 -5.75 18.0625 C-5.5025 18.701875 -5.255 19.34125 -5 20 C-4.731875 19.195625 -4.46375 18.39125 -4.1875 17.5625 C-3.5996875 16.2940625 -3.5996875 16.2940625 -3 15 C-2.01 14.67 -1.02 14.34 0 14 C0 9.38 0 4.76 0 0 Z " fill="#CECECE" transform="translate(121,102)"/>
<path d="M0 0 C0.33 0 0.66 0 1 0 C1 10.23 1 20.46 1 31 C2.32 31 3.64 31 5 31 C5 29.35 5 27.7 5 26 C6.32 26 7.64 26 9 26 C9 27.65 9 29.3 9 31 C10.32 31 11.64 31 13 31 C13 27.04 13 23.08 13 19 C13.66 19 14.32 19 15 19 C18.12940055 22.97193147 18.29162929 26.04230204 18 31 C18.99 31 19.98 31 21 31 C20.9175 29.96875 20.835 28.9375 20.75 27.875 C21.03952292 23.38739467 22.15955923 21.4252374 25 18 C25.66 18 26.32 18 27 18 C27 22.29 27 26.58 27 31 C28.32 31.33 29.64 31.66 31 32 C30.01 32 29.02 32 28 32 C27.67 35.63 27.34 39.26 27 43 C26.34 43 25.68 43 25 43 C22 36.375 22 36.375 22 33 C20.68 33 19.36 33 18 33 C17.80664062 33.62648437 17.61328125 34.25296875 17.4140625 34.8984375 C17.15367188 35.71570313 16.89328125 36.53296875 16.625 37.375 C16.24214844 38.59316406 16.24214844 38.59316406 15.8515625 39.8359375 C15 42 15 42 13 44 C12.34 43.67 11.68 43.34 11 43 C9.33805547 42.64386903 7.671549 42.30791692 6 42 C5.375 39.625 5.375 39.625 5 37 C7 35 7 35 9.625 34.875 C10.40875 34.91625 11.1925 34.9575 12 35 C12.33 34.34 12.66 33.68 13 33 C7.41499433 33.19898708 7.41499433 33.19898708 3 36 C2.49989476 38.95769177 2.49989476 38.95769177 3 42 C5.63228537 44.82726947 8.2404812 45.47784461 12 46 C12 46.66 12 47.32 12 48 C11.01 48.495 11.01 48.495 10 49 C10.66 49.33 11.32 49.66 12 50 C11.505 52.475 11.505 52.475 11 55 C10.13375 54.7215625 10.13375 54.7215625 9.25 54.4375 C6.77399031 53.95605367 5.39805371 54.36051901 3 55 C2.34 54.67 1.68 54.34 1 54 C1 54.99 1 55.98 1 57 C36.31 57 71.62 57 108 57 C108 57.33 108 57.66 108 58 C72.36 58 36.72 58 0 58 C0 38.86 0 19.72 0 0 Z " fill="#ADADAD" transform="translate(82,84)"/>
<path d="M0 0 C0.99 0 1.98 0 3 0 C3.33 2.97 3.66 5.94 4 9 C4.99 9.33 5.98 9.66 7 10 C7 6.7 7 3.4 7 0 C7.99 0 8.98 0 10 0 C10.33 3.3 10.66 6.6 11 10 C11.99 9.67 12.98 9.34 14 9 C16.1875 9.4375 16.1875 9.4375 18 10 C17.154375 9.2575 16.30875 8.515 15.4375 7.75 C13 5 13 5 13.125 2.75 C14 1 14 1 15 0 C16.99958364 -0.04080783 19.00045254 -0.04254356 21 0 C21 0.66 21 1.32 21 2 C19.35 2 17.7 2 16 2 C17.63412443 3.70840281 18.86906094 4.93453047 21 6 C21 7.98 21 9.96 21 12 C20.01 12.495 20.01 12.495 19 13 C20.98 13.66 22.96 14.32 25 15 C24.01 15.33 23.02 15.66 22 16 C22 16.66 22 17.32 22 18 C22.66 18.33 23.32 18.66 24 19 C24.495 20.485 24.495 20.485 25 22 C22.36 22 19.72 22 17 22 C17 20.35 17 18.7 17 17 C15.35 17.66 13.7 18.32 12 19 C12 19.99 12 20.98 12 22 C10.68 22 9.36 22 8 22 C8 21.34 8 20.68 8 20 C7.01 20 6.02 20 5 20 C5 20.66 5 21.32 5 22 C3.68 22 2.36 22 1 22 C1 21.01 1 20.02 1 19 C0.34 19 -0.32 19 -1 19 C-1 19.99 -1 20.98 -1 22 C-3.875 22.125 -3.875 22.125 -7 22 C-7.66 21.34 -8.32 20.68 -9 20 C-8.46428571 16.46428571 -8.46428571 16.46428571 -7 15 C-5.00041636 14.95919217 -2.99954746 14.95745644 -1 15 C-1 15.99 -1 16.98 -1 18 C-0.34 18 0.32 18 1 18 C1 16.68 1 15.36 1 14 C1.66 14 2.32 14 3 14 C3 13.34 3 12.68 3 12 C2.34 12 1.68 12 1 12 C-0.26237731 9.47524538 -0.09856404 7.68799534 -0.0625 4.875 C-0.05347656 3.96492188 -0.04445312 3.05484375 -0.03515625 2.1171875 C-0.02355469 1.41851562 -0.01195312 0.71984375 0 0 Z " fill="#A4A4A4" transform="translate(135,117)"/>
<path d="M0 0 C2.31 0 4.62 0 7 0 C8.29243536 4.1196377 9.26252625 7.66831683 9 12 C8.34 12 7.68 12 7 12 C7 12.66 7 13.32 7 14 C8.8871875 13.87625 8.8871875 13.87625 10.8125 13.75 C13.01953125 13.734375 13.01953125 13.734375 15 14 C17 16 17 16 18 18 C18.66 17.01 19.32 16.02 20 15 C20.99 15 21.98 15 23 15 C21.125 19.875 21.125 19.875 20 21 C19.63239269 23.32817964 19.29758419 25.6618385 19 28 C18.01 28 17.02 28 16 28 C15.86722656 27.38511719 15.73445313 26.77023438 15.59765625 26.13671875 C15.42105469 25.32847656 15.24445313 24.52023438 15.0625 23.6875 C14.88847656 22.88699219 14.71445313 22.08648437 14.53515625 21.26171875 C14.00113841 18.854599 14.00113841 18.854599 13 16 C12.34 16 11.68 16 11 16 C11 19.96 11 23.92 11 28 C9.68 28 8.36 28 7 28 C7 26.35 7 24.7 7 23 C5.68 23 4.36 23 3 23 C3 24.65 3 26.3 3 28 C2.01 28 1.02 28 0 28 C0 18.76 0 9.52 0 0 Z " fill="#B5B5B5" transform="translate(84,87)"/>
<path d="M0 0 C3.375 -0.125 3.375 -0.125 7 0 C7.66 0.66 8.32 1.32 9 2 C8.66666667 4.33333333 8.33333333 6.66666667 8 9 C8.66 9.66 9.32 10.32 10 11 C11.65 7.37 13.3 3.74 15 0 C16.32 0 17.64 0 19 0 C20.32 3.3 21.64 6.6 23 10 C23.33 6.7 23.66 3.4 24 0 C26.31 0 28.62 0 31 0 C31.84439338 3.98071164 32.53343967 7.95647711 33 12 C32 13 32 13 29.27734375 13.09765625 C27.62412109 13.08025391 27.62412109 13.08025391 25.9375 13.0625 C24.83277344 13.05347656 23.72804687 13.04445313 22.58984375 13.03515625 C21.73519531 13.02355469 20.88054687 13.01195313 20 13 C20 12.01 20 11.02 20 10 C18.02 10 16.04 10 14 10 C14 10.99 14 11.98 14 13 C10.6875 13.25 10.6875 13.25 7 13 C5.0625 11 5.0625 11 4 9 C3.67 10.32 3.34 11.64 3 13 C2.01 13 1.02 13 0 13 C0 8.71 0 4.42 0 0 Z " fill="#262626" transform="translate(130,102)"/>
<path d="M0 0 C0.66 0 1.32 0 2 0 C2 4.29 2 8.58 2 13 C3.32 13.33 4.64 13.66 6 14 C5.01 14 4.02 14 3 14 C2.67 17.63 2.34 21.26 2 25 C1.34 25 0.68 25 0 25 C-3 18.375 -3 18.375 -3 15 C-4.32 15 -5.64 15 -7 15 C-7.19335938 15.62648438 -7.38671875 16.25296875 -7.5859375 16.8984375 C-7.84632812 17.71570313 -8.10671875 18.53296875 -8.375 19.375 C-8.63023438 20.18710938 -8.88546875 20.99921875 -9.1484375 21.8359375 C-10 24 -10 24 -12 26 C-12.66 25.67 -13.32 25.34 -14 25 C-15.66194453 24.64386903 -17.328451 24.30791692 -19 24 C-19.625 21.625 -19.625 21.625 -20 19 C-18 17 -18 17 -15.375 16.875 C-14.59125 16.91625 -13.8075 16.9575 -13 17 C-12.67 16.34 -12.34 15.68 -12 15 C-13.98 15 -15.96 15 -18 15 C-18 14.67 -18 14.34 -18 14 C-16.35 13.67 -14.7 13.34 -13 13 C-12.67 9.04 -12.34 5.08 -12 1 C-11.34 1 -10.68 1 -10 1 C-6.87059945 4.97193147 -6.70837071 8.04230204 -7 13 C-6.01 13 -5.02 13 -4 13 C-4.0825 11.96875 -4.165 10.9375 -4.25 9.875 C-3.96047708 5.38739467 -2.84044077 3.4252374 0 0 Z " fill="#F0F0F0" transform="translate(107,102)"/>
<path d="M0 0 C-0.33 0.99 -0.66 1.98 -1 3 C-2.65 3 -4.3 3 -6 3 C-6.33 4.65 -6.66 6.3 -7 8 C-4.23735711 8.59732819 -1.83967231 9 1 9 C2.32 6.03 3.64 3.06 5 0 C6.32 0 7.64 0 9 0 C10.32 3.96 11.64 7.92 13 12 C12.01 12 11.02 12 10 12 C10 11.34 10 10.68 10 10 C8.02 10 6.04 10 4 10 C3.67 10.99 3.34 11.98 3 13 C2.01 13.495 2.01 13.495 1 14 C1 15.98 1 17.96 1 20 C1.66 20 2.32 20 3 20 C3 18.35 3 16.7 3 15 C3.66 15 4.32 15 5 15 C5.125 17.375 5.125 17.375 5 20 C4.34 20.66 3.68 21.32 3 22 C0.875 21.625 0.875 21.625 -1 21 C-1 19.35 -1 17.7 -1 16 C-1.66 16 -2.32 16 -3 16 C-3 17.65 -3 19.3 -3 21 C-3.33 21 -3.66 21 -4 21 C-4 19.35 -4 17.7 -4 16 C-4.66 15.67 -5.32 15.34 -6 15 C-4.35 15 -2.7 15 -1 15 C-1 14.34 -1 13.68 -1 13 C-2.093125 12.896875 -3.18625 12.79375 -4.3125 12.6875 C-8 12 -8 12 -9.9375 10.8125 C-11.5339636 8.08912093 -11.38630872 6.09046979 -11 3 C-8.70019487 -1.31213463 -4.28166314 -0.2105736 0 0 Z " fill="#202020" transform="translate(95,117)"/>
<path d="M0 0 C0.33 0 0.66 0 1 0 C1 4.29 1 8.58 1 13 C1.99 13 2.98 13 4 13 C4 10.69 4 8.38 4 6 C7.2542015 8.83430453 8.5206753 10.68607774 9 15 C8.01 15 7.02 15 6 15 C5.79503906 15.62648438 5.59007812 16.25296875 5.37890625 16.8984375 C5.10949219 17.71570313 4.84007812 18.53296875 4.5625 19.375 C4.29566406 20.18710938 4.02882812 20.99921875 3.75390625 21.8359375 C3 24 3 24 2 26 C1.34 26 0.68 26 0 26 C-1.31626692 22.38026598 -2 19.90432869 -2 16 C-4.31 15.67 -6.62 15.34 -9 15 C-9 18.96 -9 22.92 -9 27 C-12.32345679 22.56872428 -12.32345679 22.56872428 -13 18.8125 C-13.33 17.554375 -13.66 16.29625 -14 15 C-14.99 14.67 -15.98 14.34 -17 14 C-16.01 14 -15.02 14 -14 14 C-14 12.68 -14 11.36 -14 10 C-13.34 10 -12.68 10 -12 10 C-12 10.66 -12 11.32 -12 12 C-11.34 12.33 -10.68 12.66 -10 13 C-9.67 12.01 -9.34 11.02 -9 10 C-7.35 10 -5.7 10 -4 10 C-3.67 10.99 -3.34 11.98 -3 13 C-0.41073669 10.41073669 -0.62601957 8.97294721 -0.375 5.375 C-0.30023438 4.37210937 -0.22546875 3.36921875 -0.1484375 2.3359375 C-0.09945312 1.56507812 -0.05046875 0.79421875 0 0 Z " fill="#EBEBEB" transform="translate(163,87)"/>
<path d="M0 0 C0.5534764 2.07553648 1 3.84365964 1 6 C1.66 6 2.32 6 3 6 C3.33 6.66 3.66 7.32 4 8 C4.33 7.34 4.66 6.68 5 6 C7.31 6 9.62 6 12 6 C11.01 6.495 11.01 6.495 10 7 C10 8.65 10 10.3 10 12 C9.67 12 9.34 12 9 12 C9 10.35 9 8.7 9 7 C8.34 7 7.68 7 7 7 C7 8.98 7 10.96 7 13 C5.68 13 4.36 13 3 13 C1.43378906 13.03480469 1.43378906 13.03480469 -0.1640625 13.0703125 C-1.30617188 13.08835938 -2.44828125 13.10640625 -3.625 13.125 C-4.77226563 13.14820313 -5.91953125 13.17140625 -7.1015625 13.1953125 C-10 13 -10 13 -12 11 C-11.625 8.375 -11.625 8.375 -11 6 C-11.66 6 -12.32 6 -13 6 C-13 7.65 -13 9.3 -13 11 C-13.66 11 -14.32 11 -15 11 C-15.33 8.69 -15.66 6.38 -16 4 C-15.01 3.67 -14.02 3.34 -13 3 C-12.67 2.34 -12.34 1.68 -12 1 C-10.02 1 -8.04 1 -6 1 C-6 1.66 -6 2.32 -6 3 C-4.68 2.34 -3.36 1.68 -2 1 C-2 1.66 -2 2.32 -2 3 C-1.34 3 -0.68 3 0 3 C0 2.01 0 1.02 0 0 Z " fill="#E0E0E0" transform="translate(111,126)"/>
<path d="M0 0 C4.62 0 9.24 0 14 0 C14 0.99 14 1.98 14 3 C13.01 3 12.02 3 11 3 C10.94604522 4.62463842 10.90722805 6.24978541 10.875 7.875 C10.84019531 9.23238281 10.84019531 9.23238281 10.8046875 10.6171875 C10.75675164 13.18806994 10.75675164 13.18806994 13 15 C12.401875 15.103125 11.80375 15.20625 11.1875 15.3125 C8.71756736 16.08876455 7.67748765 17.07088921 6 19 C5.34 17.35 4.68 15.7 4 14 C1.36 14 -1.28 14 -4 14 C-4 13.34 -4 12.68 -4 12 C-3.01 11.67 -2.02 11.34 -1 11 C-0.67 7.37 -0.34 3.74 0 0 Z " fill="#E9E9E9" transform="translate(95,87)"/>
<path d="M0 0 C2.64 0 5.28 0 8 0 C8 3.3 8 6.6 8 10 C9.32 10 10.64 10 12 10 C12 11.32 12 12.64 12 14 C11.01 14.33 10.02 14.66 9 15 C7.52698031 17.78043527 7.52698031 17.78043527 6.3125 21.0625 C5.87550781 22.16722656 5.43851563 23.27195312 4.98828125 24.41015625 C4.66214844 25.26480469 4.33601562 26.11945313 4 27 C2.68 26.01 1.36 25.02 0 24 C0.185625 22.865625 0.37125 21.73125 0.5625 20.5625 C0.706875 19.386875 0.85125 18.21125 1 17 C0.67 16.67 0.34 16.34 0 16 C-0.07319621 13.30345146 -0.09242537 10.63308542 -0.0625 7.9375 C-0.05798828 7.17888672 -0.05347656 6.42027344 -0.04882812 5.63867188 C-0.0370068 3.75908129 -0.01907078 1.87953101 0 0 Z " fill="#F3F3F3" transform="translate(137,87)"/>
<path d="M0 0 C2.475 0.495 2.475 0.495 5 1 C6.67654729 0.72057545 8.34608154 0.39171753 10 0 C12.85449645 0 15.23253333 0.34454737 18 1 C19 2 19 2 19.09765625 4.50390625 C19.08605469 5.51324219 19.07445313 6.52257812 19.0625 7.5625 C19.05347656 8.57441406 19.04445313 9.58632812 19.03515625 10.62890625 C19.02355469 11.41136719 19.01195313 12.19382812 19 13 C17.68 13 16.36 13 15 13 C15 10.03 15 7.06 15 4 C14.01 4 13.02 4 12 4 C12 7.3 12 10.6 12 14 C10.68 14 9.36 14 8 14 C8 10.7 8 7.4 8 4 C6.68 4 5.36 4 4 4 C4 6.97 4 9.94 4 13 C2.68 13 1.36 13 0 13 C0 8.71 0 4.42 0 0 Z " fill="#E2E2E2" transform="translate(61,106)"/>
<path d="M0 0 C1.98 0 3.96 0 6 0 C6.33 0.99 6.66 1.98 7 3 C7.99 3.66 8.98 4.32 10 5 C8.35 5.66 6.7 6.32 5 7 C5.27617533 8.94074861 5.27617533 8.94074861 6 11 C6.99 11.66 7.98 12.32 9 13 C9 13.66 9 14.32 9 15 C6.36 15.33 3.72 15.66 1 16 C1 12.37 1 8.74 1 5 C0.01 5 -0.98 5 -2 5 C-2 8.3 -2 11.6 -2 15 C-3.32 14.67 -4.64 14.34 -6 14 C-6.33 10.37 -6.66 6.74 -7 3 C-4.69 3 -2.38 3 0 3 C0 2.01 0 1.02 0 0 Z " fill="#E7E7E7" transform="translate(144,112)"/>
<path d="M0 0 C6.625 -0.25 6.625 -0.25 10 2 C10.29296875 4.6015625 10.29296875 4.6015625 10.1875 7.625 C10.16042969 8.62789062 10.13335937 9.63078125 10.10546875 10.6640625 C10.07066406 11.43492188 10.03585938 12.20578125 10 13 C8.37675914 13.22162329 6.751279 13.42689803 5.125 13.625 C4.22007813 13.74101563 3.31515625 13.85703125 2.3828125 13.9765625 C1.59648438 13.98429687 0.81015625 13.99203125 0 14 C-2 12 -2 12 -2.125 9.375 C-2.08375 8.59125 -2.0425 7.8075 -2 7 C0.31 6.01 2.62 5.02 5 4 C3.02 4 1.04 4 -1 4 C-0.67 2.68 -0.34 1.36 0 0 Z " fill="#ECECEC" transform="translate(36,106)"/>
<path d="M0 0 C6.3782235 -0.36103152 6.3782235 -0.36103152 8.9375 1.125 C10.52990283 3.93512264 10.45319325 5.82764724 10 9 C8.375 11.375 8.375 11.375 6 13 C4.02 13 2.04 13 0 13 C0 8.71 0 4.42 0 0 Z " fill="#151515" transform="translate(178,102)"/>
<path d="M0 0 C1.875 0.25 1.875 0.25 4 1 C5.25 3.0625 5.25 3.0625 6 5 C6.66 3.35 7.32 1.7 8 0 C9.32 0 10.64 0 12 0 C12.33 4.29 12.66 8.58 13 13 C12.01 13 11.02 13 10 13 C9.67 11.02 9.34 9.04 9 7 C8.34 8.65 7.68 10.3 7 12 C6.01 11.67 5.02 11.34 4 11 C3.67 10.01 3.34 9.02 3 8 C2.34 9.32 1.68 10.64 1 12 C0.34 12 -0.32 12 -1 12 C-1.14285714 3.42857143 -1.14285714 3.42857143 0 0 Z " fill="#111111" transform="translate(110,117)"/>
<path d="M0 0 C2.31 0 4.62 0 7 0 C7.84439338 3.98071164 8.53343967 7.95647711 9 12 C8 13 8 13 5.27734375 13.09765625 C3.62412109 13.08025391 3.62412109 13.08025391 1.9375 13.0625 C0.83277344 13.05347656 -0.27195313 13.04445313 -1.41015625 13.03515625 C-2.69212891 13.01775391 -2.69212891 13.01775391 -4 13 C-2.68 12.67 -1.36 12.34 0 12 C0 8.04 0 4.08 0 0 Z " fill="#404040" transform="translate(154,102)"/>
<path d="M0 0 C6 0 6 0 8.375 1.6875 C10 4 10 4 10.5625 6.5 C10 9 10 9 7.8125 11.3125 C5 13 5 13 0 13 C0 8.71 0 4.42 0 0 Z " fill="#1A1A1A" transform="translate(109,102)"/>
<path d="M0 0 C2.31 0 4.62 0 7 0 C8.29243536 4.1196377 9.26252625 7.66831683 9 12 C6.04335481 13.4783226 3.25770263 13.06032783 0 13 C0 8.71 0 4.42 0 0 Z " fill="#383838" transform="translate(84,87)"/>
<path d="M0 0 C4 1 4 1 5.75 3.5625 C6.1625 4.366875 6.575 5.17125 7 6 C7.33 4.02 7.66 2.04 8 0 C8.99 0 9.98 0 11 0 C11 4.29 11 8.58 11 13 C7 12 7 12 5.25 9.4375 C4.8375 8.633125 4.425 7.82875 4 7 C3.67 8.98 3.34 10.96 3 13 C2.01 13 1.02 13 0 13 C0 8.71 0 4.42 0 0 Z " fill="#090909" transform="translate(164,87)"/>
<path d="M0 0 C-0.33 1.32 -0.66 2.64 -1 4 C-2.65 3.67 -4.3 3.34 -6 3 C-6 4.98 -6 6.96 -6 9 C-4.02 8.67 -2.04 8.34 0 8 C-0.33 9.65 -0.66 11.3 -1 13 C-4.14711179 13.2145758 -6.44617664 13.23318878 -9.375 12 C-11.5721401 9.29582757 -11.57386042 7.29374867 -11.37890625 3.87890625 C-11 2 -11 2 -9.4375 -0.0625 C-6.03984559 -1.36929016 -3.50452474 -0.74134177 0 0 Z " fill="#E3E3E3" transform="translate(59,107)"/>
<path d="M0 0 C1.859375 0.19140625 1.859375 0.19140625 4 1 C5.265625 3.21484375 5.265625 3.21484375 6.25 5.9375 C6.58515625 6.83339844 6.9203125 7.72929688 7.265625 8.65234375 C8 11 8 11 8 13 C7.01 13 6.02 13 5 13 C4.67 12.34 4.34 11.68 4 11 C1.47266765 10.34444881 1.47266765 10.34444881 -1 10 C-1.33 10.99 -1.66 11.98 -2 13 C-2.99 13 -3.98 13 -5 13 C-4.54554036 11.58208592 -4.08625056 10.16571954 -3.625 8.75 C-3.24214844 7.56664063 -3.24214844 7.56664063 -2.8515625 6.359375 C-2.04826333 4.13372042 -1.10288338 2.09068328 0 0 Z " fill="#232323" transform="translate(169,102)"/>
<path d="M0 0 C0.99 0 1.98 0 3 0 C4.65 4.29 6.3 8.58 8 13 C7.01 13 6.02 13 5 13 C4.67 12.34 4.34 11.68 4 11 C2.35 11 0.7 11 -1 11 C-1.33 11.66 -1.66 12.32 -2 13 C-2.99 12.67 -3.98 12.34 -5 12 C-3.35 8.04 -1.7 4.08 0 0 Z " fill="#1E1E1E" transform="translate(155,87)"/>
<path d="M0 0 C0.99 0 1.98 0 3 0 C3.33 2.97 3.66 5.94 4 9 C4.99 9.33 5.98 9.66 7 10 C7 6.7 7 3.4 7 0 C7.99 0 8.98 0 10 0 C10.05391993 1.79133978 10.09275571 3.58313899 10.125 5.375 C10.14820313 6.37273437 10.17140625 7.37046875 10.1953125 8.3984375 C10 11 10 11 8 13 C4.4375 12.75 4.4375 12.75 1 12 C-0.26237731 9.47524538 -0.09856404 7.68799534 -0.0625 4.875 C-0.05347656 3.96492188 -0.04445312 3.05484375 -0.03515625 2.1171875 C-0.02355469 1.41851562 -0.01195312 0.71984375 0 0 Z " fill="#1B1B1B" transform="translate(135,117)"/>
<path d="M0 0 C3.375 -0.125 3.375 -0.125 7 0 C7.66 0.66 8.32 1.32 9 2 C8.625 4.625 8.625 4.625 8 7 C6.35 7.33 4.7 7.66 3 8 C3 9.65 3 11.3 3 13 C2.01 13 1.02 13 0 13 C0 8.71 0 4.42 0 0 Z " fill="#2A2A2A" transform="translate(126,87)"/>
<path d="M0 0 C2.31 0 4.62 0 7 0 C7.33 0.66 7.66 1.32 8 2 C8.33 1.34 8.66 0.68 9 0 C11.31 0 13.62 0 16 0 C15.01 0.495 15.01 0.495 14 1 C14 2.65 14 4.3 14 6 C13.67 6 13.34 6 13 6 C13 4.35 13 2.7 13 1 C12.34 1 11.68 1 11 1 C11 2.98 11 4.96 11 7 C7.33333333 7 3.66666667 7 0 7 C0 4.69 0 2.38 0 0 Z " fill="#808080" transform="translate(107,132)"/>
<path d="M0 0 C3.375 -0.125 3.375 -0.125 7 0 C7.66 0.66 8.32 1.32 9 2 C8.625 4.625 8.625 4.625 8 7 C6.02 7.33 4.04 7.66 2 8 C2 9.32 2 10.64 2 12 C1.34 12 0.68 12 0 12 C0 8.04 0 4.08 0 0 Z " fill="#4B4B4B" transform="translate(125,117)"/>
<path d="M0 0 C1.2065625 0.0309375 1.2065625 0.0309375 2.4375 0.0625 C2.4375 1.0525 2.4375 2.0425 2.4375 3.0625 C1.1175 3.0625 -0.2025 3.0625 -1.5625 3.0625 C-1.5625 3.7225 -1.5625 4.3825 -1.5625 5.0625 C0.9125 6.0525 0.9125 6.0525 3.4375 7.0625 C3.4375 8.7125 3.4375 10.3625 3.4375 12.0625 C0.72870665 13.41689668 -1.57183268 13.12751451 -4.5625 13.0625 C-4.5625 11.7425 -4.5625 10.4225 -4.5625 9.0625 C-2.9125 9.3925 -1.2625 9.7225 0.4375 10.0625 C0.4375 9.4025 0.4375 8.7425 0.4375 8.0625 C-2.0375 7.0725 -2.0375 7.0725 -4.5625 6.0625 C-3.48963568 0.08511307 -3.48963568 0.08511307 0 0 Z " fill="#1A1A1A" transform="translate(115.5625,86.9375)"/>
<path d="M0 0 C-0.33 0.99 -0.66 1.98 -1 3 C-2.65 3 -4.3 3 -6 3 C-6.33 4.65 -6.66 6.3 -7 8 C-5.824375 8.2165625 -5.824375 8.2165625 -4.625 8.4375 C-2 9 -2 9 0 10 C-0.33 10.99 -0.66 11.98 -1 13 C-7.34507042 12.40140845 -7.34507042 12.40140845 -9.9375 10.8125 C-11.5339636 8.08912093 -11.38630872 6.09046979 -11 3 C-8.70019487 -1.31213463 -4.28166314 -0.2105736 0 0 Z " fill="#141414" transform="translate(95,117)"/>
<path d="M0 0 C0.78375 0.804375 1.5675 1.60875 2.375 2.4375 C4.71982856 4.98690417 4.71982856 4.98690417 7 6 C7 6.66 7 7.32 7 8 C5.35 8 3.7 8 2 8 C2 8.66 2 9.32 2 10 C2.66 10.66 3.32 11.32 4 12 C1.6875 12.625 1.6875 12.625 -1 13 C-1.99 12.34 -2.98 11.68 -4 11 C-3.67 7.7 -3.34 4.4 -3 1 C-2.01 0.67 -1.02 0.34 0 0 Z " fill="#FAFAFA" transform="translate(109,89)"/>
<path d="M0 0 C1.4540625 0.0309375 1.4540625 0.0309375 2.9375 0.0625 C2.9375 0.7225 2.9375 1.3825 2.9375 2.0625 C1.2875 2.0625 -0.3625 2.0625 -2.0625 2.0625 C-0.42837557 3.77090281 0.80656094 4.99703047 2.9375 6.0625 C2.9375 8.0425 2.9375 10.0225 2.9375 12.0625 C-3.8125 13.1875 -3.8125 13.1875 -6.0625 12.0625 C-5.7325 11.0725 -5.4025 10.0825 -5.0625 9.0625 C-3.4125 9.3925 -1.7625 9.7225 -0.0625 10.0625 C-0.908125 9.32 -1.75375 8.5775 -2.625 7.8125 C-5.0625 5.0625 -5.0625 5.0625 -4.9375 2.8125 C-3.49005506 -0.08238987 -3.49956486 0.07141969 0 0 Z " fill="#111111" transform="translate(153.0625,116.9375)"/>
<path d="M0 0 C0.33 0 0.66 0 1 0 C1 3.96 1 7.92 1 12 C0.01 11.01 -0.98 10.02 -2 9 C-4.60280568 9.32041397 -4.60280568 9.32041397 -7 10 C-8 9 -8 9 -8.0625 5.9375 C-8.041875 4.968125 -8.02125 3.99875 -8 3 C-3.25 1.875 -3.25 1.875 -1 3 C-0.67 2.01 -0.34 1.02 0 0 Z " fill="#141414" transform="translate(60,107)"/>
<path d="M0 0 C0.33 0 0.66 0 1 0 C1.33 4.29 1.66 8.58 2 13 C-3.37305699 13.96891192 -3.37305699 13.96891192 -6 14 C-8 12.5625 -8 12.5625 -9 11 C-8.01 11 -7.02 11 -6 11 C-6 9.35 -6 7.7 -6 6 C-5.195625 5.7525 -4.39125 5.505 -3.5625 5.25 C-0.828919 4.27761141 -0.828919 4.27761141 -0.1875 1.875 C-0.125625 1.25625 -0.06375 0.6375 0 0 Z " fill="#F8F8F8" transform="translate(135,89)"/>
<path d="M0 0 C1 1 1 1 1.09765625 3.50390625 C1.08605469 4.51324219 1.07445313 5.52257812 1.0625 6.5625 C1.05347656 7.57441406 1.04445313 8.58632812 1.03515625 9.62890625 C1.02355469 10.41136719 1.01195313 11.19382812 1 12 C-0.32 12 -1.64 12 -3 12 C-3 9.03 -3 6.06 -3 3 C-4.65 2.67 -6.3 2.34 -8 2 C-6.06193415 -1.87613171 -3.72361135 -0.95477214 0 0 Z " fill="#E9E9E9" transform="translate(79,107)"/>
<path d="M0 0 C2.31 0 4.62 0 7 0 C7 0.66 7 1.32 7 2 C5.35 2 3.7 2 2 2 C2 2.99 2 3.98 2 5 C3.65 5 5.3 5 7 5 C7 5.66 7 6.32 7 7 C6.360625 7.12375 5.72125 7.2475 5.0625 7.375 C4.0415625 7.684375 4.0415625 7.684375 3 8 C2.67 8.66 2.34 9.32 2 10 C3.65 10 5.3 10 7 10 C7 10.99 7 11.98 7 13 C4.69 13 2.38 13 0 13 C0 8.71 0 4.42 0 0 Z " fill="#0F0F0F" transform="translate(121,102)"/>
<path d="M0 0 C2.86724686 0.57344937 3.8614515 0.8614515 6 3 C6.66 2.01 7.32 1.02 8 0 C8.99 0 9.98 0 11 0 C9.125 4.875 9.125 4.875 8 6 C7.63239269 8.32817964 7.29758419 10.6618385 7 13 C6.01 13 5.02 13 4 13 C3.87882812 12.39671875 3.75765625 11.7934375 3.6328125 11.171875 C3.46523437 10.37265625 3.29765625 9.5734375 3.125 8.75 C2.96257812 7.96109375 2.80015625 7.1721875 2.6328125 6.359375 C2.00849925 4.03168856 1.15161458 2.10968048 0 0 Z " fill="#111111" transform="translate(96,102)"/>
<path d="M0 0 C0.66 0 1.32 0 2 0 C2 1.65 2 3.3 2 5 C3.65 5 5.3 5 7 5 C7 3.35 7 1.7 7 0 C7.66 0 8.32 0 9 0 C9 3.96 9 7.92 9 12 C8.34 12 7.68 12 7 12 C7 10.35 7 8.7 7 7 C5.35 7 3.7 7 2 7 C2 8.65 2 10.3 2 12 C1.34 12 0.68 12 0 12 C0 8.04 0 4.08 0 0 Z " fill="#000000" transform="translate(85,102)"/>
<path d="M0 0 C0 0.99 0 1.98 0 3 C-0.66 3 -1.32 3 -2 3 C-2.33 4.32 -2.66 5.64 -3 7 C-7.875 6.125 -7.875 6.125 -9 5 C-9.04063832 3.33382885 -9.042721 1.66611905 -9 0 C-5.93109813 -1.53445094 -3.29905734 -0.54984289 0 0 Z " fill="#BABABA" transform="translate(43,113)"/>
<path d="M0 0 C1.98 0 3.96 0 6 0 C6 0.66 6 1.32 6 2 C5.01 2.495 5.01 2.495 4 3 C4.66 3.33 5.32 3.66 6 4 C5.67 5.65 5.34 7.3 5 9 C4.4225 8.814375 3.845 8.62875 3.25 8.4375 C0.79307475 7.95976454 -0.64397534 8.24270636 -3 9 C-3.93423645 5.98968256 -4.04449911 5.13349732 -3 2 C-2.01 2 -1.02 2 0 2 C0 1.34 0 0.68 0 0 Z " fill="#9F9F9F" transform="translate(88,130)"/>
<path d="M0 0 C2.97 0 5.94 0 9 0 C9 0.99 9 1.98 9 3 C8.01 3 7.02 3 6 3 C6 6.3 6 9.6 6 13 C5.01 13 4.02 13 3 13 C3 9.37 3 5.74 3 2 C2.01 2 1.02 2 0 2 C0 1.34 0 0.68 0 0 Z " fill="#1E1E1E" transform="translate(100,87)"/>
<path d="M0 0 C2 3 2 3 3 6 C3.66 6.33 4.32 6.66 5 7 C5.66 5.02 6.32 3.04 7 1 C7.33 1 7.66 1 8 1 C8.1875 3.875 8.1875 3.875 8 7 C7.01 7.66 6.02 8.32 5 9 C3.80767387 11.05003955 3.80767387 11.05003955 3 13 C2.67 12.01 2.34 11.02 2 10 C1.34 10 0.68 10 0 10 C-0.33 10.66 -0.66 11.32 -1 12 C-1 11.01 -1 10.02 -1 9 C-2.32 8.67 -3.64 8.34 -5 8 C-3.35 8 -1.7 8 0 8 C0 5.36 0 2.72 0 0 Z " fill="#EEEEEE" transform="translate(112,122)"/>
<path d="M0 0 C0.66 0.33 1.32 0.66 2 1 C2.05395478 2.62463842 2.09277195 4.24978541 2.125 5.875 C2.14820313 6.77992187 2.17140625 7.68484375 2.1953125 8.6171875 C2 11 2 11 0 13 C0 12.01 0 11.02 0 10 C-1.65 10 -3.3 10 -5 10 C-4.67 9.01 -4.34 8.02 -4 7 C-2.68 7 -1.36 7 0 7 C0 6.34 0 5.68 0 5 C-1.65 5 -3.3 5 -5 5 C-5 4.01 -5 3.02 -5 2 C-3.35 2 -1.7 2 0 2 C0 1.34 0 0.68 0 0 Z " fill="#DEDEDE" transform="translate(128,102)"/>
<path d="M0 0 C0.99 0 1.98 0 3 0 C3 3.3 3 6.6 3 10 C4.32 10 5.64 10 7 10 C7 10.99 7 11.98 7 13 C4.69 13 2.38 13 0 13 C0 8.71 0 4.42 0 0 Z " fill="#131313" transform="translate(142,87)"/>
<path d="M0 0 C1.65 0 3.3 0 5 0 C5 3.96 5 7.92 5 12 C3.68 11.67 2.36 11.34 1 11 C0.67 7.37 0.34 3.74 0 0 Z " fill="#F6F6F6" transform="translate(137,115)"/>
<path d="M0 0 C0.99 0.66 1.98 1.32 3 2 C2.01 2.495 2.01 2.495 1 3 C1 4.98 1 6.96 1 9 C1.66 9 2.32 9 3 9 C3 7.35 3 5.7 3 4 C3.66 4 4.32 4 5 4 C5.125 6.375 5.125 6.375 5 9 C4.34 9.66 3.68 10.32 3 11 C0.875 10.625 0.875 10.625 -1 10 C-1 8.35 -1 6.7 -1 5 C-1.66 5 -2.32 5 -3 5 C-3 6.65 -3 8.3 -3 10 C-3.33 10 -3.66 10 -4 10 C-4 8.35 -4 6.7 -4 5 C-4.66 4.67 -5.32 4.34 -6 4 C-4.35 4 -2.7 4 -1 4 C-0.67 2.68 -0.34 1.36 0 0 Z " fill="#505050" transform="translate(95,128)"/>
<path d="M0 0 C1.2065625 0.0309375 1.2065625 0.0309375 2.4375 0.0625 C2.7675 2.3725 3.0975 4.6825 3.4375 7.0625 C0.5625 7.1875 0.5625 7.1875 -2.5625 7.0625 C-3.2225 6.4025 -3.8825 5.7425 -4.5625 5.0625 C-3.80953264 0.09291543 -3.80953264 0.09291543 0 0 Z " fill="#898989" transform="translate(130.5625,131.9375)"/>
<path d="M0 0 C2.97 0 5.94 0 9 0 C8.01 0.33 7.02 0.66 6 1 C6 1.66 6 2.32 6 3 C6.66 3.33 7.32 3.66 8 4 C8.33 4.99 8.66 5.98 9 7 C6.36 7 3.72 7 1 7 C0.67 4.69 0.34 2.38 0 0 Z " fill="#565656" transform="translate(151,132)"/>
<path d="M0 0 C0.66 1.32 1.32 2.64 2 4 C3.29470975 5.37086915 4.62150897 6.71340837 6 8 C5.67 8.66 5.34 9.32 5 10 C4.01 10.33 3.02 10.66 2 11 C2 11.66 2 12.32 2 13 C2.66 13.66 3.32 14.32 4 15 C2.68 15.33 1.36 15.66 0 16 C0 10.72 0 5.44 0 0 Z " fill="#EFEFEF" transform="translate(83,122)"/>
<path d="M0 0 C0.99 0 1.98 0 3 0 C3 4.29 3 8.58 3 13 C2.01 13 1.02 13 0 13 C0 8.71 0 4.42 0 0 Z " fill="#262626" transform="translate(177,87)"/>
<path d="M0 0 C0.99 0 1.98 0 3 0 C3 4.29 3 8.58 3 13 C2.01 13 1.02 13 0 13 C0 8.71 0 4.42 0 0 Z " fill="#1F1F1F" transform="translate(137,87)"/>
<path d="M0 0 C0.99 0 1.98 0 3 0 C3 4.29 3 8.58 3 13 C2.01 13 1.02 13 0 13 C0 8.71 0 4.42 0 0 Z " fill="#171717" transform="translate(95,87)"/>
<path d="M0 0 C0.66 0 1.32 0 2 0 C2.33 0.66 2.66 1.32 3 2 C3.33 1.34 3.66 0.68 4 0 C6.31 0 8.62 0 11 0 C10.01 0.495 10.01 0.495 9 1 C9 2.65 9 4.3 9 6 C8.67 6 8.34 6 8 6 C8 4.35 8 2.7 8 1 C7.34 1 6.68 1 6 1 C6 2.98 6 4.96 6 7 C5.01 6.67 4.02 6.34 3 6 C2.67 5.34 2.34 4.68 2 4 C1.34 4.66 0.68 5.32 0 6 C0 4.02 0 2.04 0 0 Z " fill="#2B2B2B" transform="translate(112,132)"/>
<path d="M0 0 C2.52588702 2.36292656 3.88820837 3.66462511 5 7 C4.01 7 3.02 7 2 7 C2 7.66 2 8.32 2 9 C-1.3 8.34 -4.6 7.68 -8 7 C-8 6.67 -8 6.34 -8 6 C-5.36 5.67 -2.72 5.34 0 5 C0 3.35 0 1.7 0 0 Z " fill="#E2E2E2" transform="translate(133,110)"/>
<path d="M0 0 C2.475 0.495 2.475 0.495 5 1 C4.67 2.65 4.34 4.3 4 6 C2.68 6.33 1.36 6.66 0 7 C0 4.69 0 2.38 0 0 Z " fill="#535353" transform="translate(101,132)"/>
<path d="M0 0 C1.32 0 2.64 0 4 0 C4.33 2.31 4.66 4.62 5 7 C3.35 7 1.7 7 0 7 C0 4.69 0 2.38 0 0 Z " fill="#4D4D4D" transform="translate(161,132)"/>
<path d="M0 0 C1.32 0.33 2.64 0.66 4 1 C3.34 1 2.68 1 2 1 C2 2.65 2 4.3 2 6 C2.66 6.33 3.32 6.66 4 7 C3.34 7 2.68 7 2 7 C2 8.65 2 10.3 2 12 C1.34 12 0.68 12 0 12 C0 8.04 0 4.08 0 0 Z " fill="#000000" transform="translate(125,117)"/>
<path d="M0 0 C1.98 0.99 1.98 0.99 4 2 C4 3.65 4 5.3 4 7 C2.68 7.33 1.36 7.66 0 8 C0 5.36 0 2.72 0 0 Z " fill="#E6E6E6" transform="translate(181,104)"/>
<path d="M0 0 C1.65 0.33 3.3 0.66 5 1 C4.67 1.99 4.34 2.98 4 4 C3.34 4 2.68 4 2 4 C2 4.99 2 5.98 2 7 C0.68 6.67 -0.64 6.34 -2 6 C-1.34 4.02 -0.68 2.04 0 0 Z " fill="#545454" transform="translate(145,132)"/>
<path d="M0 0 C1.32 0.33 2.64 0.66 4 1 C3.67 2.65 3.34 4.3 3 6 C2.01 6.33 1.02 6.66 0 7 C0 4.69 0 2.38 0 0 Z " fill="#ECECEC" transform="translate(112,105)"/>
<path d="M0 0 C0.33 0 0.66 0 1 0 C1 1.98 1 3.96 1 6 C-0.875 7.0625 -0.875 7.0625 -3 8 C-3.66 7.67 -4.32 7.34 -5 7 C-4.67 6.34 -4.34 5.68 -4 5 C-3.34 5.33 -2.68 5.66 -2 6 C-1.34 4.02 -0.68 2.04 0 0 Z " fill="#CECECE" transform="translate(119,123)"/>
<path d="M0 0 C1.65 0.33 3.3 0.66 5 1 C5.33 1.99 5.66 2.98 6 4 C3.69 3.67 1.38 3.34 -1 3 C-0.67 2.01 -0.34 1.02 0 0 Z " fill="#292929" transform="translate(148,126)"/>
<path d="M0 0 C2.31 0 4.62 0 7 0 C4.33440687 1.77706209 1.9719385 2.87548273 -1 4 C-0.67 2.68 -0.34 1.36 0 0 Z " fill="#CBCBCB" transform="translate(36,106)"/>
</svg>
