<svg id="visual" viewBox="0 0 900 600" width="900" height="600" xmlns="http://www.w3.org/2000/svg" xmlns:xlink="http://www.w3.org/1999/xlink" version="1.1"><g stroke-width="1" stroke-linejoin="bevel"><path d="M418 344L483 393L524.5 331Z" fill="#124c78" stroke="#220E24"></path><path d="M483 393L599.5 367L524.5 331Z" fill="#0f5885" stroke="#220E24"></path><path d="M418 344L367.5 439L483 393Z" fill="#0a6592" stroke="#220E24"></path><path d="M594.5 492L639 423L599.5 367Z" fill="#15335d" stroke="#220E24"></path><path d="M592.5 219L432 193L524.5 331Z" fill="#15335d" stroke="#220E24"></path><path d="M524.5 331L432 193L418 344Z" fill="#0f5885" stroke="#220E24"></path><path d="M418 344L305.5 334L367.5 439Z" fill="#00a8cc" stroke="#220E24"></path><path d="M432 193L305.5 334L418 344Z" fill="#00a8cc" stroke="#220E24"></path><path d="M599.5 367L592.5 219L524.5 331Z" fill="#0a6592" stroke="#220E24"></path><path d="M367.5 439L425 518L483 393Z" fill="#0f5885" stroke="#220E24"></path><path d="M594.5 492L599.5 367L483 393Z" fill="#15335d" stroke="#220E24"></path><path d="M599.5 367L651 219L592.5 219Z" fill="#15335d" stroke="#220E24"></path><path d="M425 518L594.5 492L483 393Z" fill="#0a6592" stroke="#220E24"></path><path d="M456 127L368.5 154L432 193Z" fill="#008db6" stroke="#220E24"></path><path d="M432 193L368.5 154L305.5 334Z" fill="#007fab" stroke="#220E24"></path><path d="M592.5 219L456 127L432 193Z" fill="#143f6b" stroke="#220E24"></path><path d="M694 329L651 219L599.5 367Z" fill="#143f6b" stroke="#220E24"></path><path d="M592.5 219L604.5 54L456 127Z" fill="#008db6" stroke="#220E24"></path><path d="M639 423L694 329L599.5 367Z" fill="#009ac1" stroke="#220E24"></path><path d="M305.5 334L260 419L367.5 439Z" fill="#009ac1" stroke="#220E24"></path><path d="M367.5 439L309.5 508L425 518Z" fill="#143f6b" stroke="#220E24"></path><path d="M209 280L260 419L305.5 334Z" fill="#007fab" stroke="#220E24"></path><path d="M260 419L309.5 508L367.5 439Z" fill="#00a8cc" stroke="#220E24"></path><path d="M566.5 600L633 530L594.5 492Z" fill="#009ac1" stroke="#220E24"></path><path d="M594.5 492L633 530L639 423Z" fill="#008db6" stroke="#220E24"></path><path d="M782.5 392L783.5 325L694 329Z" fill="#04729e" stroke="#220E24"></path><path d="M295.5 0L312.5 141L368.5 154Z" fill="#142850" stroke="#220E24"></path><path d="M368.5 154L312.5 141L305.5 334Z" fill="#008db6" stroke="#220E24"></path><path d="M309.5 508L407 600L425 518Z" fill="#007fab" stroke="#220E24"></path><path d="M425 518L566.5 600L594.5 492Z" fill="#007fab" stroke="#220E24"></path><path d="M312.5 141L209 280L305.5 334Z" fill="#0f5885" stroke="#220E24"></path><path d="M407 600L566.5 600L425 518Z" fill="#142850" stroke="#220E24"></path><path d="M309.5 508L317.5 600L407 600Z" fill="#124c78" stroke="#220E24"></path><path d="M225 600L317.5 600L309.5 508Z" fill="#143f6b" stroke="#220E24"></path><path d="M179 470L309.5 508L260 419Z" fill="#04729e" stroke="#220E24"></path><path d="M782.5 392L694 329L639 423Z" fill="#0a6592" stroke="#220E24"></path><path d="M694 329L779.5 235L651 219Z" fill="#00a8cc" stroke="#220E24"></path><path d="M822.5 519L639 423L633 530Z" fill="#15335d" stroke="#220E24"></path><path d="M822.5 519L782.5 392L639 423Z" fill="#124c78" stroke="#220E24"></path><path d="M694 114L592.5 219L651 219Z" fill="#15335d" stroke="#220E24"></path><path d="M694 114L604.5 54L592.5 219Z" fill="#0f5885" stroke="#220E24"></path><path d="M456 127L430 0L368.5 154Z" fill="#009ac1" stroke="#220E24"></path><path d="M779.5 235L694 114L651 219Z" fill="#00a8cc" stroke="#220E24"></path><path d="M566.5 600L656 600L633 530Z" fill="#143f6b" stroke="#220E24"></path><path d="M152.5 376L179 470L260 419Z" fill="#008db6" stroke="#220E24"></path><path d="M209 280L152.5 376L260 419Z" fill="#142850" stroke="#220E24"></path><path d="M312.5 141L198 167L209 280Z" fill="#04729e" stroke="#220E24"></path><path d="M209 280L111.5 271L152.5 376Z" fill="#007fab" stroke="#220E24"></path><path d="M209 105L198 167L312.5 141Z" fill="#007fab" stroke="#220E24"></path><path d="M783.5 325L779.5 235L694 329Z" fill="#15335d" stroke="#220E24"></path><path d="M524.5 0L430 0L456 127Z" fill="#0a6592" stroke="#220E24"></path><path d="M631 0L524.5 0L604.5 54Z" fill="#0f5885" stroke="#220E24"></path><path d="M604.5 54L524.5 0L456 127Z" fill="#007fab" stroke="#220E24"></path><path d="M295.5 0L209 105L312.5 141Z" fill="#143f6b" stroke="#220E24"></path><path d="M198 167L111.5 271L209 280Z" fill="#008db6" stroke="#220E24"></path><path d="M179 470L225 600L309.5 508Z" fill="#0f5885" stroke="#220E24"></path><path d="M79.5 187L111.5 271L198 167Z" fill="#0a6592" stroke="#220E24"></path><path d="M152.5 376L74.5 457L179 470Z" fill="#15335d" stroke="#220E24"></path><path d="M746.5 57L631 0L694 114Z" fill="#007fab" stroke="#220E24"></path><path d="M694 114L631 0L604.5 54Z" fill="#0f5885" stroke="#220E24"></path><path d="M430 0L295.5 0L368.5 154Z" fill="#142850" stroke="#220E24"></path><path d="M774.5 600L822.5 519L633 530Z" fill="#142850" stroke="#220E24"></path><path d="M782.5 392L900 371L783.5 325Z" fill="#009ac1" stroke="#220E24"></path><path d="M783.5 325L900 274L779.5 235Z" fill="#143f6b" stroke="#220E24"></path><path d="M779.5 235L746.5 57L694 114Z" fill="#142850" stroke="#220E24"></path><path d="M656 600L774.5 600L633 530Z" fill="#009ac1" stroke="#220E24"></path><path d="M0 368L74.5 457L152.5 376Z" fill="#00a8cc" stroke="#220E24"></path><path d="M179 470L78.5 600L225 600Z" fill="#008db6" stroke="#220E24"></path><path d="M295.5 0L224 0L209 105Z" fill="#124c78" stroke="#220E24"></path><path d="M78.5 135L79.5 187L198 167Z" fill="#143f6b" stroke="#220E24"></path><path d="M78.5 135L198 167L209 105Z" fill="#142850" stroke="#220E24"></path><path d="M111.5 271L0 368L152.5 376Z" fill="#124c78" stroke="#220E24"></path><path d="M900 494L900 371L782.5 392Z" fill="#009ac1" stroke="#220E24"></path><path d="M779.5 235L900 80L746.5 57Z" fill="#0a6592" stroke="#220E24"></path><path d="M900 371L900 274L783.5 325Z" fill="#142850" stroke="#220E24"></path><path d="M900 274L900 241L779.5 235Z" fill="#00a8cc" stroke="#220E24"></path><path d="M124.5 0L78.5 135L209 105Z" fill="#143f6b" stroke="#220E24"></path><path d="M0 265L0 368L111.5 271Z" fill="#04729e" stroke="#220E24"></path><path d="M822.5 519L900 494L782.5 392Z" fill="#0f5885" stroke="#220E24"></path><path d="M900 600L900 494L822.5 519Z" fill="#009ac1" stroke="#220E24"></path><path d="M74.5 457L78.5 600L179 470Z" fill="#143f6b" stroke="#220E24"></path><path d="M0 265L111.5 271L79.5 187Z" fill="#0a6592" stroke="#220E24"></path><path d="M74.5 457L0 544L78.5 600Z" fill="#142850" stroke="#220E24"></path><path d="M0 184L0 265L79.5 187Z" fill="#142850" stroke="#220E24"></path><path d="M900 80L814.5 0L746.5 57Z" fill="#143f6b" stroke="#220E24"></path><path d="M746.5 57L814.5 0L631 0Z" fill="#008db6" stroke="#220E24"></path><path d="M224 0L124.5 0L209 105Z" fill="#0f5885" stroke="#220E24"></path><path d="M78.5 135L0 184L79.5 187Z" fill="#04729e" stroke="#220E24"></path><path d="M0 60L0 184L78.5 135Z" fill="#00a8cc" stroke="#220E24"></path><path d="M774.5 600L900 600L822.5 519Z" fill="#0a6592" stroke="#220E24"></path><path d="M900 241L900 80L779.5 235Z" fill="#0f5885" stroke="#220E24"></path><path d="M0 368L0 544L74.5 457Z" fill="#15335d" stroke="#220E24"></path><path d="M0 544L0 600L78.5 600Z" fill="#143f6b" stroke="#220E24"></path><path d="M900 80L900 0L814.5 0Z" fill="#143f6b" stroke="#220E24"></path><path d="M124.5 0L0 60L78.5 135Z" fill="#009ac1" stroke="#220E24"></path><path d="M124.5 0L0 0L0 60Z" fill="#0f5885" stroke="#220E24"></path></g></svg>